<svg id="Capa_1" enable-background="new 0 0 512 512" height="512" viewBox="0 0 512 512" width="512" xmlns="http://www.w3.org/2000/svg"><g><g><path d="m89.986 375v-49c0-30.878 25.122-56 56-56s56 25.122 56 56v102.872c0 45.837 37.291 83.128 83.128 83.128s83.128-37.291 83.128-83.128v-10.826l45.881-108.291-27.623-11.703-33.258 78.497-33.257-78.497-27.623 11.703 45.88 108.291v10.826c0 29.295-23.833 53.128-53.128 53.128s-53.128-23.833-53.128-53.128v-102.872c0-47.42-38.58-86-86-86s-86 38.58-86 86v49z" fill="#5a5a5a"/><path d="m353.242 376.549v99.87c9.439-13.484 15-29.874 15-47.546v-10.826l45.881-108.291-27.623-11.703z" fill="#3c3c3c"/><path d="m423.242 20h23.714c20.583 0 39.498 9.425 51.893 25.857s16.261 37.208 10.606 57l-39.812 139.342c-7.286 25.5-22.328 47.419-43.5 63.39-21.172 15.97-46.38 24.412-72.9 24.412s-51.729-8.441-72.901-24.412c-21.172-15.97-36.214-37.89-43.5-63.39l-39.812-139.342c-5.655-19.791-1.789-40.566 10.606-56.999s31.309-25.858 51.892-25.858h23.713v30h-23.713c-11.083 0-21.268 5.075-27.942 13.923s-8.756 20.035-5.711 30.692l39.812 139.342c11.11 38.885 47.114 66.043 87.555 66.043s76.445-27.158 87.555-66.042l39.812-139.342c3.045-10.657.963-21.844-5.711-30.692-6.674-8.849-16.859-13.924-27.943-13.924h-23.714v-30z" fill="#f1f4f6"/><path d="m446.955 20h-23.714v30h23.714c11.083 0 21.268 5.075 27.942 13.923s8.756 20.035 5.711 30.692l-39.812 139.342c-11.109 38.885-47.113 66.043-87.554 66.043v30c26.52 0 51.729-8.441 72.9-24.412 21.172-15.97 36.214-37.89 43.5-63.39l39.812-139.342c5.655-19.792 1.789-40.567-10.606-57s-31.309-25.856-51.893-25.856z" fill="#daeaec"/><path d="m283.242 70c-8.284 0-15-6.716-15-15v-40c0-8.284 6.716-15 15-15s15 6.716 15 15v40c0 8.284-6.716 15-15 15z" fill="#738cff"/><path d="m423.242 70c-8.284 0-15-6.716-15-15v-40c0-8.284 6.716-15 15-15s15 6.716 15 15v40c0 8.284-6.716 15-15 15z" fill="#5064ff"/></g><g><circle cx="75" cy="435" fill="#738cff" r="60"/><g fill="#5064ff"><path d="m75 510c-41.355 0-75-33.645-75-75s33.645-75 75-75 75 33.645 75 75-33.645 75-75 75zm0-120c-24.813 0-45 20.187-45 45s20.187 45 45 45 45-20.187 45-45-20.187-45-45-45z"/><circle cx="75" cy="435" r="15"/></g></g></g></svg>