<svg id="Capa_1" enable-background="new 0 0 512 512" height="512" viewBox="0 0 512 512" width="512" xmlns="http://www.w3.org/2000/svg"><g><path d="m384.861 219.05c-24.965 0-50.456-11.521-57.678-22.561-2.268-3.467-1.296-8.114 2.169-10.383 3.467-2.266 8.115-1.295 10.382 2.17 6.535 9.989 46.771 23.842 69.096 9.805 3.506-2.204 8.137-1.148 10.341 2.357 2.205 3.507 1.15 8.137-2.357 10.342-9.365 5.889-20.605 8.27-31.953 8.27z" fill="#f2d98d"/><path d="m127.139 219.05c-11.35 0-22.586-2.38-31.954-8.27-3.507-2.205-4.562-6.835-2.357-10.342 2.204-3.507 6.835-4.561 10.341-2.357 22.324 14.04 62.56.184 69.096-9.805 2.267-3.467 6.916-4.436 10.382-2.17 3.466 2.269 4.438 6.916 2.169 10.383-7.22 11.038-32.713 22.561-57.677 22.561z" fill="#f2d98d"/><path d="m482.734 190.542c38.18-41.142 36.407-90.615 9.646-119.173-30.228-32.259-98.038-43.474-189.661 31.084-9.429 7.673-10.853 21.538-3.18 30.967 7.673 9.43 21.537 10.854 30.967 3.179 63.41-51.601 111.708-54.381 129.75-35.129 13.335 14.23 9.308 38.544-9.792 59.126-8.27 8.911-7.749 22.838 1.162 31.108 8.89 8.251 22.819 7.769 31.108-1.162z" fill="#eda1ab"/><path d="m29.266 190.542c-38.18-41.142-36.407-90.614-9.647-119.173 30.228-32.259 98.038-43.474 189.661 31.084 9.429 7.673 10.853 21.538 3.18 30.967-7.673 9.43-21.537 10.854-30.967 3.179-63.41-51.601-111.708-54.381-129.75-35.129-13.335 14.23-9.308 38.544 9.792 59.126 8.27 8.911 7.749 22.838-1.162 31.108-8.889 8.251-22.818 7.769-31.107-1.162z" fill="#eda1ab"/><path d="m363.081 63.312c-18.692 8.885-38.871 21.654-60.361 39.141-9.429 7.673-10.853 21.538-3.18 30.967 7.673 9.43 21.537 10.854 30.966 3.179 24.343-19.81 46.456-32.417 65.487-39.352-7.393-13.314-18.48-24.807-32.912-33.935z" fill="#e8899e"/><path d="m209.28 102.453c-21.49-17.487-41.669-30.255-60.361-39.141-14.432 9.127-25.519 20.621-32.913 33.935 19.032 6.935 41.144 19.542 65.487 39.352 9.429 7.675 23.294 6.251 30.967-3.179 7.673-9.429 6.249-23.294-3.18-30.967z" fill="#e8899e"/><path d="m375.876 140.011c0-49.262-53.391-70.851-119.876-70.851s-119.876 21.589-119.876 70.851c0 27.983 17.561 60.022 44.729 82.483 6.591 5.449 8.939 14.61 5.474 22.428-10.804 24.373-12.113 52.277-2.995 78.002l22.197 62.628c3.795 10.707 13.923 17.863 25.282 17.863h50.378c11.36 0 21.487-7.156 25.282-17.863l22.197-62.628c9.118-25.726 7.81-53.629-2.995-78.002-3.466-7.818-1.117-16.979 5.474-22.428 27.167-22.461 44.729-54.5 44.729-82.483z" fill="#eda1ab"/><path d="m295.988 398.941c-86.542-69.316-122.534-249.647-87.877-325.414-42.467 8.532-71.987 29.857-71.987 66.484 0 27.983 17.562 60.022 44.729 82.483 6.591 5.449 8.939 14.61 5.474 22.428-10.804 24.373-12.112 52.277-2.995 78.002l22.197 62.628c3.795 10.707 13.923 17.863 25.282 17.863h50.378c5.397 0 10.505-1.63 14.799-4.474z" fill="#e8899e"/><g><g fill="#fff"><ellipse cx="174.042" cy="162.964" rx="30.241" ry="24.082"/><ellipse cx="337.958" cy="162.964" rx="30.241" ry="24.082"/></g><g fill="#4e5660"><path d="m191.667 147.282c-4.142 0-7.5-3.357-7.5-7.5v-12.362c0-4.143 3.358-7.5 7.5-7.5s7.5 3.357 7.5 7.5v12.362c0 4.143-3.358 7.5-7.5 7.5z"/><path d="m320.334 147.282c-4.142 0-7.5-3.357-7.5-7.5v-12.362c0-4.143 3.358-7.5 7.5-7.5s7.5 3.357 7.5 7.5v12.362c0 4.143-3.358 7.5-7.5 7.5z"/><path d="m256 154.641c-8.669 0-16.912-3.754-22.616-10.299-2.721-3.123-2.396-7.86.727-10.582s7.86-2.395 10.582.726c2.855 3.275 6.976 5.154 11.307 5.154s8.452-1.879 11.307-5.154c2.721-3.123 7.46-3.448 10.582-.726 3.123 2.722 3.448 7.459.727 10.582-5.704 6.545-13.947 10.299-22.616 10.299z"/></g></g><ellipse cx="442.11" cy="193.159" fill="#f6ee86" rx="44.415" ry="33.311" transform="matrix(.94 -.342 .342 .94 -39.402 162.86)"/><ellipse cx="69.89" cy="193.159" fill="#f6ee86" rx="33.311" ry="44.415" transform="matrix(.342 -.94 .94 .342 -135.524 192.77)"/><ellipse cx="393.914" cy="366.186" fill="#e8899e" rx="99.313" ry="99.313" transform="matrix(.707 -.707 .707 .707 -143.558 385.792)"/><path d="m413.528 341.37v-28.823c0-2.873-2.329-5.202-5.203-5.202h-28.823c-2.873 0-5.202 2.329-5.202 5.202v28.823c0 2.873-2.329 5.202-5.202 5.202h-28.823c-2.873 0-5.202 2.329-5.202 5.202v28.823c0 2.873 2.329 5.202 5.202 5.202h28.823c2.873 0 5.202 2.329 5.202 5.202v28.823c0 2.873 2.329 5.203 5.202 5.203h28.823c2.873 0 5.203-2.329 5.203-5.203v-28.823c0-2.873 2.329-5.202 5.202-5.202h28.823c2.873 0 5.202-2.329 5.202-5.202v-28.823c0-2.873-2.329-5.202-5.202-5.202h-28.823c-2.873 0-5.202-2.329-5.202-5.202z" fill="#fff"/></g></svg>