<?xml version="1.0" encoding="iso-8859-1"?>
<!-- Generator: Adobe Illustrator 21.0.0, SVG Export Plug-In . SVG Version: 6.00 Build 0)  -->
<svg version="1.1" id="Capa_1" xmlns="http://www.w3.org/2000/svg" xmlns:xlink="http://www.w3.org/1999/xlink" x="0px" y="0px"
	 viewBox="0 0 512 512" style="enable-background:new 0 0 512 512;" xml:space="preserve">
<linearGradient id="SVGID_1_" gradientUnits="userSpaceOnUse" x1="0" y1="258" x2="512" y2="258" gradientTransform="matrix(1 0 0 -1 0 514)">
	<stop  offset="0" style="stop-color:#00F2FE"/>
	<stop  offset="0.021" style="stop-color:#03EFFE"/>
	<stop  offset="0.293" style="stop-color:#24D2FE"/>
	<stop  offset="0.554" style="stop-color:#3CBDFE"/>
	<stop  offset="0.796" style="stop-color:#4AB0FE"/>
	<stop  offset="1" style="stop-color:#4FACFE"/>
</linearGradient>
<path style="fill:url(#SVGID_1_);" d="M512,169.274c0,70.016-49.856,128.708-87.357,166.764c-3.913,3.972-9.08,5.962-14.247,5.962
	c-5.07,0-10.14-1.915-14.037-5.754c-7.868-7.753-7.961-20.416-0.208-28.283C447.898,255.449,472,211.38,472,169.274
	C472,107.29,431.701,64,374,64c-37.519,0-65.223,14.115-82.342,41.952c-13.589,22.097-15.704,45.098-15.724,45.328
	c-0.803,10.419-9.488,18.42-19.938,18.42s-19.135-8.089-19.938-18.508c-0.013-0.142-2.127-23.143-15.717-45.24
	C203.223,78.115,175.519,64,138,64c-57.701,0-98,43.29-98,105.274C40,197.228,50.606,225.97,72.382,257h47.474l33.181-67.792
	c3.414-6.974,10.581-11.369,18.319-11.204c7.764,0.138,14.746,4.757,17.91,11.848l40.864,91.592l26.023-51.468
	c3.377-6.679,10.201-10.914,17.685-10.975c0.055,0,0.11,0,0.165,0c7.421,0,14.237,4.11,17.697,10.685L306.075,257H351
	c11.046,0,20,8.954,20,20c0,11.046-8.954,20-20,20h-57c-7.426,0-14.24-4.114-17.698-10.685l-1.945-3.696l-27.508,54.405
	c-3.409,6.742-10.318,10.975-17.846,10.976c-0.162,0-0.324-0.002-0.487-0.006c-7.716-0.187-14.635-4.797-17.78-11.845
	l-40.574-90.941l-19.864,40.585C146.94,292.651,139.97,297,132.333,297H20c-11.046,0-20-8.954-20-20c0-11.046,8.954-20,20-20h5.07
	C8.244,227.235,0,198.314,0,169.274c0-42.477,13.946-79.052,40.331-105.771C65.485,38.029,100.171,24,138,24
	c66.135,0,100.331,34.03,117.372,62.577c0.211,0.354,0.421,0.709,0.628,1.063c0.208-0.354,0.417-0.709,0.628-1.063
	C273.669,58.03,307.865,24,374,24c37.829,0,72.515,14.029,97.669,39.502C498.054,90.221,512,126.797,512,169.274z M325.81,372.73
	l-0.46,0.404c-25.421,22.301-49.722,43.639-69.35,64.542c-19.63-20.905-43.933-42.244-69.356-64.547
	c-13.538-11.877-27.537-24.158-41.108-36.634c-8.132-7.477-20.785-6.944-28.259,1.187c-7.476,8.131-6.944,20.784,1.187,28.259
	c13.914,12.792,28.091,25.229,41.801,37.257c31.329,27.484,60.921,53.445,80.155,77.342c0.021,0.027,0.044,0.051,0.066,0.077
	c0.089,0.109,0.183,0.214,0.274,0.321c0.362,0.426,0.734,0.837,1.123,1.226c0.022,0.022,0.042,0.045,0.064,0.067
	c0.471,0.467,0.964,0.901,1.471,1.312c0.015,0.012,0.027,0.025,0.042,0.037c0.009,0.008,0.019,0.014,0.029,0.021
	c0.442,0.355,0.895,0.688,1.361,1.001c0.029,0.02,0.059,0.038,0.088,0.057c0.442,0.294,0.893,0.57,1.354,0.825
	c0.032,0.018,0.064,0.038,0.097,0.056c0.447,0.245,0.902,0.469,1.364,0.678c0.115,0.052,0.23,0.1,0.345,0.15
	c0.375,0.161,0.754,0.311,1.137,0.448c0.101,0.036,0.201,0.077,0.302,0.112c0.429,0.146,0.862,0.272,1.299,0.389
	c0.17,0.045,0.341,0.087,0.512,0.128c0.357,0.085,0.715,0.16,1.076,0.226c0.142,0.026,0.283,0.053,0.425,0.076
	c0.421,0.067,0.845,0.118,1.269,0.158c0.151,0.014,0.301,0.026,0.453,0.037c0.456,0.033,0.913,0.055,1.371,0.056
	c0.016,0,0.033,0.002,0.049,0.002c0.004,0,0.008,0,0.012,0s0.008,0,0.012,0c0.016,0,0.033-0.002,0.049-0.002
	c0.458-0.002,0.914-0.024,1.371-0.056c0.151-0.011,0.302-0.023,0.453-0.037c0.423-0.04,0.844-0.09,1.264-0.157
	c0.146-0.023,0.29-0.052,0.436-0.078c0.358-0.065,0.714-0.14,1.068-0.224c0.173-0.041,0.345-0.083,0.516-0.129
	c0.435-0.116,0.867-0.242,1.294-0.387c0.106-0.036,0.21-0.079,0.315-0.117c0.377-0.135,0.75-0.283,1.119-0.441
	c0.12-0.052,0.239-0.102,0.358-0.156c0.458-0.207,0.91-0.43,1.353-0.672c0.039-0.021,0.077-0.045,0.116-0.066
	c0.453-0.251,0.896-0.523,1.331-0.812c0.034-0.023,0.069-0.044,0.103-0.067c0.463-0.311,0.914-0.643,1.353-0.996
	c0.01-0.008,0.021-0.015,0.031-0.023c0.016-0.013,0.029-0.027,0.045-0.04c0.505-0.41,0.997-0.843,1.467-1.308
	c0.024-0.023,0.045-0.048,0.069-0.072c0.387-0.387,0.759-0.797,1.119-1.222c0.091-0.107,0.186-0.213,0.274-0.322
	c0.021-0.026,0.045-0.051,0.066-0.077c19.233-23.896,48.823-49.854,80.149-77.337l0.46-0.404c8.303-7.284,9.129-19.921,1.844-28.224
	C346.75,366.272,334.113,365.447,325.81,372.73z"/>
<g>
</g>
<g>
</g>
<g>
</g>
<g>
</g>
<g>
</g>
<g>
</g>
<g>
</g>
<g>
</g>
<g>
</g>
<g>
</g>
<g>
</g>
<g>
</g>
<g>
</g>
<g>
</g>
<g>
</g>
</svg>
